# xmcd
#
# Track frame offsets:
#	150
#	15332
#	30935
#	48495
#	63745
#	76117
#	91132
#	108227
#	121667
#	138737
#	151107
#	172772
#	189405
#	206657
#
# Disc length: 2954 seconds
#
# Revision: 1
# Processed by: cddbd v1.4PL0 Copyright (c) Steve Scherf et al.
# Submitted via: audiograbber 1.80
#
DISCID=a00b880e
DTITLE=Miltinho Edilberto - Como Alcançar uma Estrela
DYEAR=1900
DGENRE=
TTITLE0=Como Alcançar uma Estrela
TTITLE1=O Sonho
TTITLE2=Heroina
TTITLE3=Quem Tá Parado É Viado
TTITLE4=Xote da Internet
TTITLE5=Forró de Viola
TTITLE6=Um Beijo Se Quer
TTITLE7=Mar Ta pra Peixe
TTITLE8=Luz do Desejo
TTITLE9=Maria Joana
TTITLE10=Coração Virado
TTITLE11=Não Há Nada Igual ao Forró
TTITLE12=Nóis É Jeca Mais É Jóia
TTITLE13=The End
EXTD=
EXTT0=
EXTT1=
EXTT2=
EXTT3=
EXTT4=
EXTT5=
EXTT6=
EXTT7=
EXTT8=
EXTT9=
EXTT10=
EXTT11=
EXTT12=
EXTT13=
PLAYORDER=
